<?xml version="1.0" encoding="utf-8"?>
<!-- Generator: Adobe Illustrator 16.0.0, SVG Export Plug-In . SVG Version: 6.00 Build 0)  -->
<!DOCTYPE svg PUBLIC "-//W3C//DTD SVG 1.1//EN" "http://www.w3.org/Graphics/SVG/1.1/DTD/svg11.dtd">
<svg version="1.1" id="Layer_1" xmlns="http://www.w3.org/2000/svg" xmlns:xlink="http://www.w3.org/1999/xlink" x="0px" y="0px"
	 width="441px" height="116.333px" viewBox="0 0 441 116.333" enable-background="new 0 0 441 116.333" xml:space="preserve">
<g>
	<path fill="#35459C" d="M80.742,31.024l-1.308,2.586L30.02,8.643l1.309-2.589L21.327,1L0,43.206l10.001,5.054l2.368-4.689
		l19.1,9.653L7.035,101.578l10.349,5.231L41.82,58.453l19.965,10.088l-2.368,4.689l10.002,5.056L90.748,36.08L80.742,31.024z
		 M28.725,7.989L11.076,42.918L9.36,46.315l-7.414-3.748l20.018-39.62l7.416,3.747L28.725,7.989z M68.779,76.339l-7.415-3.747
		l1.717-3.397L80.73,34.268l0.654-1.295l7.416,3.747L68.779,76.339z"/>
	<polygon fill="#35459C" points="36.535,36.175 36.541,36.164 36.537,36.16 	"/>
</g>
<g>
	<path fill="#FFCC67" d="M59.56,30.242l-11.854,6.76l5.643,1.667c0.309,0.089,0.536,0.357,0.57,0.684
		c0.033,0.322-0.126,0.634-0.417,0.79L36.64,49.317c-0.169,0.092-0.373,0.121-0.567,0.075c-0.205-0.049-0.382-0.178-0.496-0.36
		c-0.222-0.36-0.124-0.836,0.222-1.079l10.42-7.273l-8.121-1.447c0,0,0,0-0.005-0.001c-0.344-0.081-0.567-0.316-0.632-0.612
		c-0.068-0.319,0.058-0.646,0.326-0.831l14.745-10.292c0.184-0.128,0.416-0.176,0.636-0.124l6.165,1.393
		c0.324,0.077,0.568,0.343,0.615,0.665C60.004,29.757,59.847,30.076,59.56,30.242z"/>
</g>
<rect x="1.064" y="99.023" transform="matrix(0.8643 0.503 -0.503 0.8643 53.9087 8.1334)" fill="#35459C" width="21.638" height="9.878"/>
<g>
	<path fill="#35459C" d="M128.06,49.759v10.905c-5.331-4.459-10.846-6.689-16.545-6.689c-6.28,0-11.571,2.256-15.872,6.769
		c-4.328,4.486-6.491,9.975-6.491,16.466c0,6.413,2.163,11.822,6.491,16.229c4.328,4.407,9.631,6.61,15.912,6.61
		c3.246,0,6.003-0.527,8.273-1.583c1.267-0.527,2.579-1.24,3.938-2.137c1.359-0.897,2.791-1.979,4.295-3.246v11.142
		c-5.278,2.996-10.819,4.493-16.625,4.493c-8.734,0-16.189-3.048-22.363-9.144c-6.149-6.148-9.223-13.563-9.223-22.245
		c0-7.784,2.573-14.725,7.718-20.82c6.333-7.467,14.526-11.201,24.58-11.201C117.636,45.307,122.94,46.791,128.06,49.759z"/>
	<path fill="#35459C" d="M136.174,88.055c0-5.567,1.992-10.304,5.977-14.21c3.984-3.905,8.839-5.858,14.566-5.858
		c5.752,0,10.634,1.966,14.645,5.897c3.958,3.932,5.938,8.761,5.938,14.487c0,5.779-1.993,10.622-5.977,14.526
		c-4.011,3.879-8.932,5.819-14.764,5.819c-5.779,0-10.622-1.979-14.527-5.938C138.127,98.875,136.174,93.966,136.174,88.055z
		 M145.278,88.213c0,3.853,1.029,6.901,3.087,9.144c2.11,2.27,4.895,3.404,8.352,3.404c3.483,0,6.267-1.121,8.352-3.364
		c2.084-2.243,3.127-5.238,3.127-8.985c0-3.747-1.042-6.742-3.127-8.985c-2.111-2.269-4.895-3.404-8.352-3.404
		c-3.404,0-6.162,1.135-8.272,3.404C146.333,81.696,145.278,84.625,145.278,88.213z"/>
	<path fill="#35459C" d="M186.72,69.056h8.945v3.562c3.113-3.087,6.623-4.631,10.529-4.631c4.486,0,7.982,1.412,10.489,4.235
		c2.163,2.401,3.246,6.32,3.246,11.755v23.63h-8.945V86.103c0-3.795-0.528-6.417-1.583-7.867c-1.029-1.476-2.903-2.214-5.621-2.214
		c-2.956,0-5.053,0.975-6.293,2.925c-1.214,1.924-1.821,5.284-1.821,10.081v18.58h-8.945V69.056z"/>
	<path fill="#35459C" d="M295.054,108.717h-11.597l-4.79-4.908c-5.093,3.272-10.766,4.908-17.02,4.908
		c-8.102,0-15.292-2.744-21.572-8.233c-6.834-6.042-10.251-13.761-10.251-23.155c0-9.209,3.232-16.888,9.698-23.037
		c6.279-5.963,13.695-8.945,22.244-8.945c7.759,0,14.711,2.612,20.86,7.837c7.388,6.281,11.082,14.474,11.082,24.58
		c0,7.917-2.916,14.949-8.747,21.097L295.054,108.717z M269.683,83.398l8.866,8.819c3.905-4.06,5.857-9.083,5.857-15.067
		c0-6.564-2.177-12.062-6.53-16.491c-4.354-4.43-9.764-6.645-16.229-6.645c-6.545,0-11.928,2.215-16.149,6.645
		c-4.249,4.403-6.373,9.979-6.373,16.729c0,6.592,2.19,11.983,6.571,16.175c4.564,4.324,9.776,6.486,15.635,6.486
		c3.983,0,7.586-0.909,10.806-2.729l-14.368-13.921H269.683z"/>
	<path fill="#35459C" d="M312.51,69.056v22.126c0,6.386,2.52,9.579,7.561,9.579c5.039,0,7.561-3.192,7.561-9.579V69.056h8.906V91.38
		c0,3.087-0.383,5.753-1.148,7.996c-0.738,2.005-2.02,3.813-3.84,5.423c-3.008,2.612-6.834,3.918-11.479,3.918
		c-4.617,0-8.432-1.306-11.439-3.918c-1.848-1.609-3.152-3.417-3.918-5.423c-0.738-1.794-1.108-4.459-1.108-7.996V69.056H312.51z"/>
	<path fill="#35459C" d="M382.887,90.43h-27.629c0.238,3.167,1.268,5.687,3.088,7.56c1.82,1.847,4.156,2.771,7.006,2.771
		c2.217,0,4.051-0.527,5.502-1.583c1.426-1.055,3.047-3.008,4.869-5.858l7.52,4.196c-1.162,1.979-2.389,3.675-3.682,5.086
		s-2.678,2.573-4.154,3.483c-1.479,0.911-3.076,1.577-4.791,1.999c-1.715,0.422-3.576,0.633-5.58,0.633
		c-5.754,0-10.371-1.847-13.854-5.542c-3.484-3.721-5.225-8.655-5.225-14.804c0-6.095,1.688-11.029,5.066-14.803
		c3.404-3.721,7.916-5.581,13.537-5.581c5.672,0,10.158,1.808,13.457,5.422c3.271,3.589,4.908,8.563,4.908,14.922L382.887,90.43z
		 M373.742,83.147c-1.24-4.75-4.234-7.125-8.984-7.125c-1.082,0-2.098,0.165-3.047,0.495c-0.951,0.33-1.816,0.805-2.594,1.425
		c-0.779,0.621-1.445,1.366-1.998,2.236c-0.555,0.871-0.977,1.86-1.268,2.969H373.742z"/>
	<path fill="#35459C" d="M415.027,75.626l-7.363,3.918c-1.16-2.348-2.598-3.522-4.312-3.522c-0.818,0-1.52,0.27-2.1,0.811
		s-0.869,1.232-0.869,2.075c0,1.476,1.715,2.939,5.145,4.388c4.723,2.03,7.902,3.901,9.539,5.614
		c1.637,1.713,2.455,4.019,2.455,6.918c0,3.716-1.373,6.827-4.117,9.33c-2.666,2.373-5.885,3.558-9.658,3.558
		c-6.465,0-11.043-3.153-13.734-9.46l7.6-3.523c1.055,1.847,1.859,3.022,2.414,3.523c1.082,1.003,2.375,1.504,3.879,1.504
		c3.008,0,4.514-1.372,4.514-4.117c0-1.583-1.162-3.061-3.484-4.433c-0.896-0.448-1.795-0.884-2.691-1.306
		c-0.896-0.421-1.807-0.857-2.73-1.306c-2.588-1.267-4.408-2.533-5.463-3.8c-1.346-1.609-2.018-3.681-2.018-6.214
		c0-3.351,1.146-6.122,3.443-8.312c2.348-2.19,5.197-3.285,8.549-3.285C408.957,67.987,412.625,70.534,415.027,75.626z"/>
	<path fill="#35459C" d="M434.699,77.368v30.24h-8.906v-30.24h-3.801v-8.312h3.801v-14.13h8.906v14.13h6.926v8.312H434.699z"/>
</g>
</svg>
